<svg xmlns="http://www.w3.org/2000/svg" id="Group_3756" width="28.029" height="26.861" viewBox="0 0 28.029 26.861">
    <defs>
        <style>
            .cls-1{fill:#1676e2}
        </style>
    </defs>
    <g id="like">
        <g id="Group_3753">
            <g id="Group_3752">
                <path id="Path_3572" d="M28.029 26.725a2.6 2.6 0 0 0-.76-1.838 2.9 2.9 0 0 0 .747-2.229 3.019 3.019 0 0 0-3.046-2.648h-7.213a16.791 16.791 0 0 0 .93-4.671c0-2.533-2.152-4.671-3.5-4.671a3.668 3.668 0 0 0-2.116.711.584.584 0 0 0-.22.457V15.8l-3.369 7.281-.139.071v-.222a.584.584 0 0 0-.584-.584H2.92A2.922 2.922 0 0 0 0 25.265v9.343a2.922 2.922 0 0 0 2.92 2.92h3.5A2.926 2.926 0 0 0 9.171 35.6a7.613 7.613 0 0 0 3.091.763h10.72a2.687 2.687 0 0 0 2.646-2.039 2.636 2.636 0 0 0-.21-1.755 2.618 2.618 0 0 0 1.169-3.5 2.617 2.617 0 0 0 1.442-2.344zm-2.463 1.441a.584.584 0 0 0-.334 1.006 1.447 1.447 0 0 1-.833 2.5.584.584 0 0 0-.334 1.006 1.444 1.444 0 0 1 .423 1.393 1.511 1.511 0 0 1-1.505 1.124h-10.72a5.536 5.536 0 0 1-3.09-1 .585.585 0 0 0-1 .413 1.754 1.754 0 0 1-1.75 1.752H2.92a1.754 1.754 0 0 1-1.752-1.752v-9.343a1.754 1.754 0 0 1 1.752-1.751h5.255v.586a.586.586 0 0 0 .278.5.6.6 0 0 0 .568.025l1.168-.584a.583.583 0 0 0 .269-.277l3.5-7.591a.6.6 0 0 0 .054-.245v-3.777a2.463 2.463 0 0 1 1.168-.316c.64 0 2.336 1.591 2.336 3.5a18.185 18.185 0 0 1-1.129 5.048.583.583 0 0 0 .545.792h8.036a1.844 1.844 0 0 1 1.883 1.587 1.745 1.745 0 0 1-.832 1.653.585.585 0 0 0 .04 1.017 1.446 1.446 0 0 1-.5 2.732z" class="cls-1" transform="translate(0 -10.667)"/>
            </g>
        </g>
        <g id="Group_3755" transform="translate(8.175 12.847)">
            <g id="Group_3754">
                <path id="Path_3573" d="M149.917 245.333a.584.584 0 0 0-.584.584v10.511a.584.584 0 1 0 1.168 0v-10.511a.584.584 0 0 0-.584-.584z" class="cls-1" transform="translate(-149.333 -245.333)"/>
            </g>
        </g>
    </g>
    <path id="Path_3574" d="M3070.462-345.441l-.2 13.472-7.417-.434.325-13.037z" class="cls-1" transform="translate(-3062 358)"/>
    <path id="Path_3575" d="M3071.722-345.441l3.286-7.065 1-4.558h2.19l1.867 4.029-1.281 5.143 8.844-.429 1.573 1.97v1.67l-.849 1.213.616.282.233 1.757-.537 1.723v2.175L3087-335.54l-.478 2.357-13.669.167-2.658-1.98.438-9.685z" class="cls-1" transform="translate(-3062 358)"/>
</svg>
